<?xml version="1.0" standalone="no"?>
<!DOCTYPE svg PUBLIC "-//W3C//DTD SVG 20010904//EN"
 "http://www.w3.org/TR/2001/REC-SVG-20010904/DTD/svg10.dtd">
<svg version="1.0" xmlns="http://www.w3.org/2000/svg"
 width="500.000000pt" height="500.000000pt" viewBox="0 0 500.000000 500.000000"
 preserveAspectRatio="xMidYMid meet">
<metadata>
Created by potrace 1.11, written by Peter Selinger 2001-2013
</metadata>
<g transform="translate(0.000000,500.000000) scale(0.100000,-0.100000)"
fill="#000000" stroke="none">
<path d="M2260 3908 c-655 -50 -1199 -516 -1355 -1160 -58 -239 -56 -623 5
-873 17 -72 24 -69 -122 -61 -73 3 -176 16 -228 27 -160 34 -162 34 -188 6
-31 -33 -27 -83 8 -108 58 -43 280 -79 484 -79 l114 0 17 -42 c31 -80 109
-199 178 -273 80 -87 220 -185 263 -185 43 0 74 25 74 61 0 45 -14 64 -74 97
-103 59 -226 191 -285 309 -11 23 -21 46 -21 51 0 5 28 14 63 20 90 17 237 67
346 118 52 24 95 43 96 42 1 -2 79 -172 174 -378 94 -206 181 -383 192 -393
19 -15 49 -17 309 -17 274 0 289 1 313 20 l26 21 3 209 c3 229 5 234 72 284
41 31 122 28 174 -6 72 -48 82 -85 82 -299 0 -181 1 -186 23 -207 23 -22 29
-22 332 -22 368 0 348 -5 482 133 246 255 412 608 469 997 13 88 15 154 11
280 -9 243 -48 395 -159 611 -221 431 -651 735 -1136 804 -119 16 -585 25
-742 13z m250 -164 c236 -55 446 -256 505 -484 25 -95 16 -287 -18 -390 -36
-111 -53 -147 -112 -235 -141 -212 -387 -363 -622 -381 -108 -8 -133 -14 -154
-35 -25 -25 -24 -74 2 -100 20 -20 29 -21 128 -16 232 12 456 113 633 285 129
126 219 275 274 457 25 82 28 105 28 255 1 147 -2 173 -22 234 -54 161 -142
289 -267 389 l-50 40 73 -7 c307 -28 602 -163 829 -379 168 -161 278 -332 347
-537 55 -165 69 -266 63 -465 -7 -250 -56 -449 -167 -680 -85 -178 -237 -386
-327 -448 l-39 -27 -241 0 -241 0 -4 157 c-4 181 -15 218 -88 297 -64 69 -137
101 -230 100 -118 -1 -216 -58 -268 -158 -26 -49 -27 -59 -30 -223 l-4 -173
-206 0 -207 0 -179 393 c-99 215 -186 400 -194 410 -24 27 -69 20 -146 -23
-108 -59 -258 -116 -384 -146 -62 -15 -115 -25 -117 -22 -13 12 -45 208 -56
333 -42 508 93 902 416 1213 204 197 436 316 715 367 103 18 280 18 360 -1z"/>
<path d="M1515 2876 c-98 -44 -137 -174 -81 -271 36 -60 116 -100 184 -91 160
21 223 217 105 328 -15 15 -41 32 -56 37 -39 15 -116 13 -152 -3z m115 -155
c23 -45 -30 -81 -62 -41 -13 17 -15 26 -8 41 14 25 56 25 70 0z"/>
</g>
</svg>
